<?xml version="1.0" encoding="UTF-8" standalone="no"?>
<!-- Creator: CorelDRAW X6 -->

<svg
   xmlns:dc="http://purl.org/dc/elements/1.1/"
   xmlns:cc="http://creativecommons.org/ns#"
   xmlns:rdf="http://www.w3.org/1999/02/22-rdf-syntax-ns#"
   xmlns:svg="http://www.w3.org/2000/svg"
   xmlns="http://www.w3.org/2000/svg"
   xmlns:sodipodi="http://sodipodi.sourceforge.net/DTD/sodipodi-0.dtd"
   xmlns:inkscape="http://www.inkscape.org/namespaces/inkscape"
   xml:space="preserve"
   width="669px"
   height="676px"
   version="1.1"
   style="shape-rendering:geometricPrecision; text-rendering:geometricPrecision; image-rendering:optimizeQuality; fill-rule:evenodd; clip-rule:evenodd"
   viewBox="0 0 9620 9723"
   id="svg2"
   inkscape:version="0.48.4 r9939"
   sodipodi:docname="CDRoundelWithTextBelow-LtBg.eps"><metadata
   id="metadata23"><rdf:RDF><cc:Work
       rdf:about=""><dc:format>image/svg+xml</dc:format><dc:type
         rdf:resource="http://purl.org/dc/dcmitype/StillImage" /><dc:title></dc:title></cc:Work></rdf:RDF></metadata><sodipodi:namedview
   pagecolor="#ffffff"
   bordercolor="#666666"
   borderopacity="1"
   objecttolerance="10"
   gridtolerance="10"
   guidetolerance="10"
   inkscape:pageopacity="0"
   inkscape:pageshadow="2"
   inkscape:window-width="1336"
   inkscape:window-height="899"
   id="namedview21"
   showgrid="false"
   inkscape:zoom="0.98901497"
   inkscape:cx="113.58352"
   inkscape:cy="329.09222"
   inkscape:window-x="0"
   inkscape:window-y="134"
   inkscape:window-maximized="0"
   inkscape:current-layer="svg2" />
 <defs
   id="defs4">
  <style
   type="text/css"
   id="style6">
   
    .fil1 {fill:#FEFEFE}
    .fil0 {fill:black}
    .fil2 {fill:white}
   
  </style>
 </defs>
 <g
   id="Layer_x0020_1">
  <metadata
   id="CorelCorpID_0Corel-Layer" />
  <path
   class="fil0"
   d="M1028 8153l0 361c-3,107 -25,203 -64,286 -32,71 -82,139 -154,193 -71,57 -168,89 -296,89 -129,0 -229,-32 -300,-89 -71,-54 -118,-121 -150,-193 -39,-82 -61,-178 -64,-286l0 -1546c4,-104 25,-200 64,-282 32,-71 78,-143 150,-196 71,-54 171,-89 300,-89 129,0 225,36 296,89 71,54 121,125 154,196 39,82 61,178 64,282l0 361 -361 0 0 -361c0,-71 -18,-121 -57,-164 -18,-18 -50,-29 -89,-29 -68,0 -100,50 -118,96 -11,29 -14,61 -18,97l0 1546c4,75 25,125 61,164 18,18 43,29 75,29 82,0 114,-43 132,-96 11,-25 14,-57 14,-96l0 -361 361 0zm1124 425c-11,189 -68,321 -193,425 -64,54 -154,78 -271,78 -232,0 -346,-129 -404,-257 -32,-75 -54,-161 -57,-257l0 -982c11,-189 68,-328 193,-435 61,-54 150,-79 268,-79 232,0 350,129 407,254 32,75 54,157 57,250l0 1003zm-339 -993c4,-75 -11,-128 -46,-171 -18,-18 -46,-29 -78,-29 -68,0 -97,46 -111,100 -11,29 -14,61 -11,100l0 982c-3,75 14,129 46,168 18,18 43,29 75,29 68,0 100,-43 114,-96 11,-29 14,-61 11,-100l0 -982zm1501 1468l-361 0 0 -129c-61,57 -114,100 -182,132 -36,18 -72,25 -104,25 -100,0 -168,-57 -211,-132 -46,-71 -68,-168 -68,-250l0 -1246c0,-82 21,-178 68,-253 43,-71 111,-129 211,-129 68,0 139,39 193,79 32,25 61,50 93,78l0 -800 361 0 0 2624zm-361 -1525c0,-57 -54,-118 -107,-118 -54,0 -96,50 -96,118l0 1096c0,68 43,118 96,118 54,0 107,-50 107,-118l0 -1096zm1553 825l0 225c-11,189 -68,321 -196,425 -64,54 -154,78 -271,78 -232,0 -350,-129 -407,-257 -32,-75 -54,-161 -57,-257l0 -982c11,-189 71,-328 200,-435 61,-54 150,-79 268,-79 232,0 350,129 407,254 32,75 54,157 57,250l0 568 -596 0 0 425c4,75 25,129 57,168 18,18 43,29 75,29 68,0 100,-43 114,-96 11,-29 14,-61 14,-100l0 -214 336 0zm-596 -493l261 0 0 -275c0,-75 -14,-128 -50,-171 -18,-18 -46,-29 -78,-29 -68,0 -97,46 -114,100 -11,29 -14,61 -18,100l0 275zm1558 -389c-32,-11 -68,-14 -100,-14 -57,0 -125,7 -182,61 -68,57 -79,118 -79,178l0 1357 -361 0 0 -1953 361 0 0 218c4,-25 29,-86 86,-143 57,-54 143,-104 275,-104l0 400zm157 1582l0 -2624 304 0c357,0 550,71 653,271 100,200 114,529 114,1043 0,514 -14,839 -114,1039 -103,200 -296,271 -653,271l-304 0zm386 -386c132,0 207,-14 246,-143 18,-61 32,-154 36,-278 4,-125 4,-293 4,-507 0,-214 0,-382 -4,-507 -3,-121 -18,-214 -36,-278 -39,-125 -114,-139 -246,-139l0 1853zm1832 -89c-11,189 -68,321 -193,425 -64,54 -154,78 -271,78 -232,0 -346,-129 -404,-257 -32,-75 -54,-161 -57,-257l0 -982c11,-189 68,-328 193,-435 61,-54 150,-79 268,-79 232,0 350,129 407,254 32,75 54,157 57,250l0 1003zm-339 -993c4,-75 -11,-128 -46,-171 -18,-18 -46,-29 -78,-29 -68,0 -97,46 -111,100 -11,29 -14,61 -11,100l0 982c-3,75 14,129 46,168 18,18 43,29 75,29 68,0 100,-43 114,-96 11,-29 14,-61 11,-100l0 -982zm579 -1157l361 0 0 361 -361 0 0 -361zm361 671l0 2003c0,100 0,257 -50,386 -50,132 -161,236 -364,236 -57,0 -96,-4 -121,-11 -14,-4 -25,-7 -36,-11l0 -332c11,3 21,3 32,7 25,4 46,7 68,7 61,0 89,-50 103,-111 4,-29 7,-61 7,-93 0,-32 0,-61 0,-82l0 -1999 361 0zm1177 1478c-11,189 -68,321 -193,425 -64,54 -154,78 -271,78 -232,0 -346,-129 -404,-257 -32,-75 -54,-161 -57,-257l0 -982c11,-189 68,-328 193,-435 61,-54 150,-79 268,-79 232,0 350,129 407,254 32,75 54,157 57,250l0 1003zm-339 -993c4,-75 -11,-128 -46,-171 -18,-18 -46,-29 -78,-29 -68,0 -97,46 -111,100 -11,29 -14,61 -11,100l0 982c-3,75 14,129 46,168 18,18 43,29 75,29 68,0 100,-43 114,-96 11,-29 14,-61 11,-100l0 -982z"
   id="path10" />
  <g
   id="_836803312">
   <circle
   class="fil1"
   cx="4818"
   cy="2907"
   r="2850"
   id="circle13" />
   <path
   class="fil0"
   d="M4830 0c1605,0 2907,1301 2907,2907 0,1605 -1301,2907 -2907,2907 -1605,0 -2907,-1301 -2907,-2907 0,-1605 1301,-2907 2907,-2907zm-29 150c-14,0 -27,0 -41,1 -1503,22 -2716,1248 -2716,2756 0,1510 1216,2737 2721,2756 -744,-19 -1343,-629 -1343,-1378 0,-761 618,-1378 1378,-1378 761,0 1378,-618 1378,-1378 0,-761 -618,-1378 -1378,-1378z"
   id="path15" />
   <path
   class="fil0"
   d="M4366 1800l0 -1027c0,-45 16,-84 49,-116 33,-33 72,-49 117,-49l536 0c44,0 83,16 115,49 32,33 49,72 49,116l0 1027c0,46 -16,85 -49,117 -32,32 -71,49 -117,49l-533 0c-46,0 -86,-16 -118,-49 -32,-32 -48,-71 -48,-117zm695 -6l0 -1013 -523 0 0 1013 523 0z"
   id="path17" />
   <path
   class="fil2"
   d="M4561 4906l264 0 0 -1013 -260 0c-24,0 -44,-8 -61,-25 -17,-17 -25,-37 -25,-61 0,-24 8,-44 25,-61 17,-17 37,-25 61,-25l431 0 0 1185 172 0 0 -358c0,-23 8,-43 25,-60 17,-17 37,-26 61,-26 24,0 44,8 61,25 17,17 25,37 25,61l0 444c0,24 -8,44 -25,61 -17,17 -37,25 -61,25l-693 0c-24,0 -44,-9 -61,-26 -17,-17 -25,-38 -25,-62 0,-23 8,-43 25,-59 17,-16 37,-25 61,-25z"
   id="path19" />
  </g>
 </g>
</svg>